<?xml version="1.0" encoding="UTF-8"?>
<!-- Created with Inkscape (http://www.inkscape.org/) -->
<svg stroke="currentColor" width="111.17mm" height="84.152mm" version="1.1" viewBox="0 0 111.17 84.152" xmlns="http://www.w3.org/2000/svg" xmlns:serif="http://www.serif.com/" xmlns:xlink="http://www.w3.org/1999/xlink">
 <defs>
  <clipPath id="clipPath1114">
   <rect transform="scale(1,-1)" x="-.69482" y="-1.0963" width=".58737" height=".44944" fill="none" stroke="currentColor" stroke-width=".0010773"/>
  </clipPath>
 </defs>
 <g transform="translate(-42.261 -39.049)">
  <g transform="matrix(215.9 0 0 -279.4 184.75 313.27)" clip-path="url(#clipPath1114)" fill="none" stroke="currentColor">
   <path d="m0.047131 0.027745c0 1.9891e-4 0.0014477 3.4234e-4 0.0038235 3.7882e-4 0.0038235 5.867e-5 0.0038235 5.867e-5 -9.804e-5 2.2727e-4 -0.0071242 3.0625e-4 -0.0027399 6.3276e-4 0.0060192 4.4825e-4 0.0089407-1.8837e-4 0.0098473-2.6164e-4 0.0092213-7.4537e-4 -5.464e-4 -4.2221e-4 -0.018966-7.223e-4 -0.018966-3.0897e-4zm0.012059 5.29e-4c-3.7745e-4 7.624e-5 -9.951e-4 7.624e-5 -0.0013725 0-3.7745e-4 -7.621e-5 -6.863e-5 -1.3857e-4 6.8627e-4 -1.3857e-4s0.0010637 6.236e-5 6.8623e-4 1.3857e-4zm0.0080267-1.6206e-4c2.0354e-4 4.7185e-4 0.0010809 5.5449e-4 0.0011116 1.047e-4 1.139e-5 -1.6667e-4 -2.7364e-4 -3.5015e-4 -6.334e-4 -4.0773e-4 -4.0891e-4 -6.545e-5 -5.8818e-4 4.815e-5 -4.782e-4 3.0303e-4zm0.53207 0.0099532c0 1.6667e-4 1.7647e-4 3.0303e-4 3.9215e-4 3.0303e-4 2.1569e-4 0 3.9216e-4 -1.3636e-4 3.9216e-4 -3.0303e-4 0-1.6666e-4 -1.7647e-4 -3.0303e-4 -3.9216e-4 -3.0303e-4 -2.1568e-4 0-3.9215e-4 1.3637e-4 -3.9215e-4 3.0303e-4zm-0.48118 0.14421c0 3.8197e-4 0.001151 0.001067 0.001431 8.5091e-4 4.0159e-4 -3.1031e-4 -1.9774e-4 -0.001117-8.2993e-4 -0.001117-3.303e-4 0-6.0054e-4 1.1966e-4 -6.0107e-4 2.6609e-4zm-0.071311 0.61186c0 4.1667e-4 8.901e-5 5.8712e-4 1.978e-4 3.7879e-4 1.0878e-4 -2.0834e-4 1.0878e-4 -5.4925e-4 0-7.5758e-4 -1.0879e-4 -2.0833e-4 -1.978e-4 -3.788e-5 -1.978e-4 3.7879e-4zm5.8054e-4 0.059908c-4.6822e-4 3.6185e-4 -2.5275e-4 0.001002 3.3793e-4 0.001002 3.2353e-4 0 5.8823e-4 -1.965e-4 5.8823e-4 -4.3666e-4 0-5.0626e-4 -5.5971e-4 -8.48e-4 -9.2616e-4 -5.6534e-4z" stroke-width=".00034472"/>
   <path d="m0.049007 0.028289c0.0011396 6.139e-5 0.0029043 6.076e-5 0.0039216 0 0.0010173-6.221e-5 8.49e-5 -1.1245e-4 -0.002072-1.1167e-4 -0.0021569 0-0.0029892 5.17e-5 -0.0018496 1.1309e-4zm0.0088104-1.488e-5c3.7745e-4 7.624e-5 9.951e-4 7.624e-5 0.0013725 0 3.7745e-4 -7.621e-5 6.862e-5 -1.3857e-4 -6.8628e-4 -1.3857e-4s-0.0010637 6.236e-5 -6.8622e-4 1.3857e-4z" stroke-width=".00034472"/>
   <g transform="translate(-.25198 .38804)">
    <g fill="none" stroke="currentColor">
     <g transform="matrix(.0046318 0 0 -.0035791 -.59766 .83116)" fill="none" stroke="currentColor">
      <g transform="matrix(.086763 0 0 .086763 40.778 66.255)" clip-rule="evenodd" fill="none" fill-rule="evenodd" stroke="currentColor" stroke-linecap="round" stroke-linejoin="round" stroke-miterlimit="1.5">
       <g transform="translate(-536.96 -773.4)" fill="none" stroke="currentColor">
        <g id="outline-ref-logo" transform="translate(17.819 -21.265)" serif:id="outline ref logo">
         <g fill="none">
          <g transform="matrix(1 0 0 1.0412 0 -58.2)">
           <path d="m1080.6 1117.2c-8.5951 36.496-49.726 99.276-193.11 195.35-247.89 129.92-362.5 75-362.5 75s314.35-284.18 500-312.5" fill="none" stroke="currentColor" stroke-width="7.72px"/>
          </g>
          <g transform="matrix(.54174 .80851 -.72891 .4884 1977.2 -60.367)">
           <path d="m545.43 1360.2c139.93-166.68 420.85-271.96 554.57-297.72-109.54 167.17-312.59 354.53-535.86 372.98" fill="none" stroke="currentColor" stroke-width="8.5px"/>
          </g>
          <path d="m972.71 1243.1s-174.06 461.49 196.92 458.03c317.74-8.3513 238.07-464.54 190.7-491" stroke-width="7.88px"/>
          <g transform="matrix(.96429 0 0 .75149 38.393 251.66)">
           <path d="m1085.7 995.5c42.466 12.356 93.696 14.296 154.77-3.4219" fill="none" stroke="currentColor" stroke-width="9.11px"/>
          </g>
          <path d="m1125 1081.2s-32.769 345.72-111.11 343.24c-5.6815-84 152.16-157.08 148.65-24.535-18.064 94.368-51.312 48.913-37.93-13.721 89.512-226.71 175.43 57.592 137.89 38.769-7.2235-4.5916-85.2-81.838-81.25-343.63" stroke-width="10px"/>
          <path d="m1200 1637.5c40.37-3.623 65.313-21.318 93.75-50" stroke-width="6.67px"/>
         </g>
         <path d="m898.5 1481.3-71.774 16.158" fill="#fff" stroke-width="5.8196px"/>
         <g transform="matrix(.85001 0 0 .86441 134.28 218.77)" fill="none">
          <path d="m856.25 1631.2 66.55-33.131" fill="#fff" stroke="currentColor" stroke-width="6.67px"/>
         </g>
         <path d="m1004.2 1742.4 33.79-36.597" fill="#fff" stroke-width="5.7908px"/>
         <g transform="matrix(1.0763 0 0 .80108 -85.158 357)" fill="none">
          <path d="m1225 1756.2-6.25-43.75" fill="#fff" stroke="currentColor" stroke-width="6.67px"/>
         </g>
         <path d="m1410.2 1703.4-42.927-48.03" fill="#fff" stroke-width="5.7108px"/>
         <path d="m1495.8 1476.1h-71.315" fill="#fff" stroke-width="6.2489px"/>
         <g stroke-width="6.67px">
          <path d="m1037.5 800s55.205 31.959 62.5 100" fill="none"/>
          <path d="m1201.1 903.32c8.7658-54.286 20.317-63.986 61.353-103.32" fill="none"/>
          <path d="m1232.5 949.12c-19.99-36.055-154.53-24.674-150.23 1.174-2.4213 24.34 150.49 27.539 150.23-1.174z" fill="#000"/>
         </g>
        </g>
        <path d="m1100.4 1025c61.719 9.4172 93.848 7.3913 150.54-2.5877" stroke-width="8.966px"/>
       </g>
      </g>
     </g>
    </g>
   </g>
  </g>
 </g>
</svg>
