<?xml version="1.0" encoding="UTF-8" standalone="no"?>
<!-- Created with Inkscape (http://www.inkscape.org/) -->

<svg
   width="111.17245mm"
   height="84.152382mm"
   viewBox="0 0 111.17247 84.152373"
   version="1.1"
   id="svg5"
   inkscape:version="1.2.2 (732a01da63, 2022-12-09)"
   sodipodi:docname="firefly_logo_raw.svg"
   inkscape:export-filename="/home/dukerupert/Downloads/firefly_logo_blue_black.png"
   inkscape:export-xdpi="96"
   inkscape:export-ydpi="96"
   xmlns:inkscape="http://www.inkscape.org/namespaces/inkscape"
   xmlns:sodipodi="http://sodipodi.sourceforge.net/DTD/sodipodi-0.dtd"
   xmlns:xlink="http://www.w3.org/1999/xlink"
   xmlns="http://www.w3.org/2000/svg"
   xmlns:svg="http://www.w3.org/2000/svg"
   xmlns:serif="http://www.serif.com/">
  <sodipodi:namedview
     id="namedview7"
     pagecolor="#ffffff"
     bordercolor="#666666"
     borderopacity="1.0"
     inkscape:pageshadow="2"
     inkscape:pageopacity="0.0"
     inkscape:pagecheckerboard="0"
     inkscape:document-units="mm"
     showgrid="false"
     fit-margin-left="15"
     lock-margins="true"
     fit-margin-top="15"
     fit-margin-right="15"
     fit-margin-bottom="15"
     inkscape:zoom="1.2810466"
     inkscape:cx="181.88253"
     inkscape:cy="184.61467"
     inkscape:window-width="2256"
     inkscape:window-height="1415"
     inkscape:window-x="-9"
     inkscape:window-y="-9"
     inkscape:window-maximized="1"
     inkscape:current-layer="g979"
     inkscape:snap-global="true"
     inkscape:showpageshadow="2"
     inkscape:deskcolor="#d1d1d1" />
  <defs
     id="defs2">
    <color-profile
       name="BOE-CQ_------NE135FBM_N41.icm"
       xlink:href="../.local/share/icc/BOE_CQ_______NE135FBM_N41.icm"
       id="color-profile322" />
    <clipPath
       clipPathUnits="userSpaceOnUse"
       id="clipPath1114">
      <rect
         style="fill:none;stroke:#edf0f7;stroke-width:0.00107726;stroke-opacity:1"
         id="rect1116"
         width="0.58737206"
         height="0.44944313"
         x="-0.69482392"
         y="-1.096333"
         transform="scale(1,-1)" />
    </clipPath>
  </defs>
  <g
     inkscape:label="Layer 1"
     inkscape:groupmode="layer"
     id="layer1"
     transform="translate(-42.26135,-39.049262)">
    <g
       inkscape:groupmode="layer"
       id="layer2"
       inkscape:label="Background" />
    <g
       id="g979"
       transform="matrix(215.89999,0,0,-279.4,184.74751,313.26568)"
       style="fill:none;stroke:#edf0f7;stroke-opacity:1"
       clip-path="url(#clipPath1114)">
      <path
         style="fill:none;stroke:#edf0f7;stroke-width:0.000344725;stroke-opacity:1"
         d="m 0.04713136,0.02774495 c 0,1.9891e-4 0.0014477,3.4234e-4 0.0038235,3.7882e-4 0.0038235,5.867e-5 0.0038235,5.867e-5 -9.804e-5,2.2727e-4 -0.0071242,3.0625e-4 -0.0027399,6.3276e-4 0.0060192,4.4825e-4 0.0089407,-1.8837e-4 0.0098473,-2.6164e-4 0.0092213,-7.4537e-4 -5.464e-4,-4.2221e-4 -0.01896598,-7.223e-4 -0.01896596,-3.0897e-4 z m 0.01205883,5.29e-4 c -3.7745e-4,7.624e-5 -9.951e-4,7.624e-5 -0.0013725,0 -3.7745e-4,-7.621e-5 -6.863e-5,-1.3857e-4 6.8627e-4,-1.3857e-4 7.549e-4,0 0.0010637,6.236e-5 6.8623e-4,1.3857e-4 z m 0.0080267,-1.6206e-4 c 2.0354e-4,4.7185e-4 0.0010809,5.5449e-4 0.0011116,1.047e-4 1.139e-5,-1.6667e-4 -2.7364e-4,-3.5015e-4 -6.334e-4,-4.0773e-4 -4.0891e-4,-6.545e-5 -5.8818e-4,4.815e-5 -4.782e-4,3.0303e-4 z m 0.53207134,0.0099532 c 0,1.6667e-4 1.7647e-4,3.0303e-4 3.9215e-4,3.0303e-4 2.1569e-4,0 3.9216e-4,-1.3636e-4 3.9216e-4,-3.0303e-4 0,-1.6666e-4 -1.7647e-4,-3.0303e-4 -3.9216e-4,-3.0303e-4 -2.1568e-4,0 -3.9215e-4,1.3637e-4 -3.9215e-4,3.0303e-4 z M 0.11811176,0.18227041 c 0,3.8197e-4 0.001151,0.001067 0.001431,8.5091e-4 4.0159e-4,-3.1031e-4 -1.9774e-4,-0.001117 -8.2993e-4,-0.001117 -3.303e-4,0 -6.0054e-4,1.1966e-4 -6.0107e-4,2.6609e-4 z M 0.04680113,0.79412568 c 0,4.1667e-4 8.901e-5,5.8712e-4 1.978e-4,3.7879e-4 1.0878e-4,-2.0834e-4 1.0878e-4,-5.4925e-4 0,-7.5758e-4 -1.0879e-4,-2.0833e-4 -1.978e-4,-3.788e-5 -1.978e-4,3.7879e-4 z m 5.8054e-4,0.0599076 c -4.6822e-4,3.6185e-4 -2.5275e-4,0.001002 3.3793e-4,0.001002 3.2353e-4,0 5.8823e-4,-1.965e-4 5.8823e-4,-4.3666e-4 0,-5.0626e-4 -5.5971e-4,-8.48e-4 -9.2616e-4,-5.6534e-4 z"
         id="path993"
         sodipodi:nodetypes="sssssssssssssssssssccscssssscss" />
      <path
         style="fill:none;stroke:#edf0f7;stroke-width:0.000344725;stroke-opacity:1"
         d="m 0.04900725,0.02828883 c 0.0011396,6.139e-5 0.0029043,6.076e-5 0.0039216,0 0.0010173,-6.221e-5 8.49e-5,-1.1245e-4 -0.002072,-1.1167e-4 -0.0021569,0 -0.0029892,5.17e-5 -0.0018496,1.1309e-4 z m 0.0088104,-1.488e-5 c 3.7745e-4,7.624e-5 9.951e-4,7.624e-5 0.0013725,0 3.7745e-4,-7.621e-5 6.862e-5,-1.3857e-4 -6.8628e-4,-1.3857e-4 -7.549e-4,0 -0.0010637,6.236e-5 -6.8622e-4,1.3857e-4 z"
         id="path991"
         sodipodi:nodetypes="cccccssss" />
      <g
         id="g16135"
         transform="translate(-0.25198398,0.38803895)"
         style="fill:none;stroke:#edf0f7;stroke-opacity:1">
        <g
           id="g1803"
           style="fill:none;stroke:#edf0f7;stroke-opacity:1">
          <g
             id="g1209"
             transform="matrix(0.00463177,0,0,-0.0035791,-0.5976594,0.83116177)"
             style="fill:none;stroke:#edf0f7;stroke-opacity:1">
            <g
               style="clip-rule:evenodd;fill:none;fill-rule:evenodd;stroke:#edf0f7;stroke-linecap:round;stroke-linejoin:round;stroke-miterlimit:1.5;stroke-opacity:1"
               id="g936"
               transform="matrix(0.08676346,0,0,0.08676346,40.778347,66.254701)">
              <g
                 id="g13856"
                 transform="translate(-536.9591,-773.40038)"
                 style="fill:none;stroke:#edf0f7;stroke-opacity:1">
                <g
                   id="outline-ref-logo"
                   serif:id="outline ref logo"
                   transform="translate(17.8188,-21.264624)"
                   style="fill:none;stroke:#edf0f7;stroke-opacity:1">
                  <g
                     transform="matrix(1,0,0,1.04116,0,-58.2001)"
                     id="g4"
                     style="fill:none;stroke:#edf0f7;stroke-opacity:1">
                    <path
                       d="m 1080.6103,1117.1532 c -8.5951,36.496 -49.7262,99.2764 -193.1103,195.3468 -247.88817,129.9175 -362.5,75 -362.5,75 0,0 314.35403,-284.1801 500,-312.5"
                       style="fill:none;fill-opacity:1;stroke:#edf0f7;stroke-width:7.72px;stroke-opacity:1"
                       id="path2"
                       sodipodi:nodetypes="cccc" />
                  </g>
                  <g
                     transform="matrix(0.54174,0.80851,-0.728907,0.488403,1977.16,-60.3666)"
                     id="g8"
                     style="fill:none;stroke:#edf0f7;stroke-opacity:1">
                    <path
                       d="M 545.4263,1360.2244 C 685.36098,1193.5474 966.27303,1088.2601 1100,1062.5 990.45783,1229.6738 787.41445,1417.0338 564.13823,1435.4785"
                       style="fill:none;fill-opacity:1;stroke:#edf0f7;stroke-width:8.5px;stroke-opacity:1"
                       id="path6"
                       sodipodi:nodetypes="ccc" />
                  </g>
                  <path
                     d="m 972.70515,1243.1154 c 0,0 -174.0567,461.4889 196.92275,458.032 317.7439,-8.3513 238.0678,-464.5399 190.6989,-490.9976"
                     style="fill:none;fill-opacity:1;stroke:#edf0f7;stroke-width:7.88px;stroke-opacity:1"
                     id="path10"
                     sodipodi:nodetypes="ccc" />
                  <g
                     transform="matrix(0.964286,0,0,0.751488,38.3929,251.655)"
                     id="g16"
                     style="fill:none;stroke:#edf0f7;stroke-opacity:1">
                    <path
                       d="m 1085.7093,995.5025 c 42.4663,12.3561 93.6955,14.2962 154.7713,-3.42188"
                       style="fill:none;fill-opacity:1;stroke:#edf0f7;stroke-width:9.11px;stroke-opacity:1"
                       id="path14"
                       sodipodi:nodetypes="cc" />
                  </g>
                  <path
                     d="m 1125,1081.25 c 0,0 -32.7692,345.7171 -111.1092,343.2371 -5.6815,-83.9999 152.1551,-157.0772 148.6476,-24.5349 -18.0641,94.3677 -51.312,48.9132 -37.9296,-13.7213 89.5118,-226.7059 175.4341,57.5924 137.8912,38.7691 -7.2235,-4.5916 -85.2,-81.8383 -81.25,-343.6283"
                     style="fill:none;fill-opacity:1;stroke:#edf0f7;stroke-width:10px;stroke-opacity:1"
                     id="path18"
                     sodipodi:nodetypes="cccccc" />
                  <path
                     d="m 1200,1637.5 c 40.3703,-3.623 65.3132,-21.3179 93.75,-50"
                     style="fill:none;stroke:#edf0f7;stroke-width:6.67px;stroke-opacity:1"
                     id="path20"
                     sodipodi:nodetypes="cc" />
                  <path
                     d="m 898.49545,1481.3377 -71.77358,16.1581"
                     style="fill:#ffffff;fill-opacity:1;stroke:#edf0f7;stroke-width:5.81958px;stroke-opacity:1"
                     id="path22" />
                  <g
                     transform="matrix(0.85001206,0,0,0.86441222,134.27772,218.7693)"
                     id="g26"
                     style="fill:none;stroke:#edf0f7;stroke-opacity:1">
                    <path
                       d="m 856.25,1631.25 66.54968,-33.1307"
                       style="fill:#ffffff;fill-opacity:1;stroke:#edf0f7;stroke-width:6.67px;stroke-opacity:1"
                       id="path24"
                       sodipodi:nodetypes="cc" />
                  </g>
                  <path
                     d="m 1004.1501,1742.4076 33.7895,-36.5972"
                     style="fill:#ffffff;fill-opacity:1;stroke:#edf0f7;stroke-width:5.79077px;stroke-opacity:1"
                     id="path28" />
                  <g
                     transform="matrix(1.0762677,0,0,0.80108017,-85.157653,357.00158)"
                     id="g32"
                     style="fill:none;stroke:#edf0f7;stroke-opacity:1">
                    <path
                       d="m 1225,1756.25 -6.25,-43.75"
                       style="fill:#ffffff;fill-opacity:1;stroke:#edf0f7;stroke-width:6.67px;stroke-opacity:1"
                       id="path30" />
                  </g>
                  <path
                     d="m 1410.172,1703.4091 -42.9272,-48.0298"
                     style="fill:#ffffff;fill-opacity:1;stroke:#edf0f7;stroke-width:5.71085px;stroke-opacity:1"
                     id="path34" />
                  <path
                     d="m 1495.802,1476.1474 h -71.3149"
                     style="fill:#ffffff;fill-opacity:1;stroke:#edf0f7;stroke-width:6.24891px;stroke-opacity:1"
                     id="path36" />
                  <path
                     d="m 1037.5,800 c 0,0 55.2051,31.9589 62.5,100"
                     style="fill:none;fill-opacity:1;stroke:#edf0f7;stroke-width:6.67px;stroke-opacity:1"
                     id="path38"
                     sodipodi:nodetypes="cc" />
                  <path
                     d="M 1201.1474,903.32058 C 1209.9132,849.03435 1221.4643,839.3347 1262.5,800"
                     style="fill:none;fill-opacity:1;stroke:#edf0f7;stroke-width:6.67px;stroke-opacity:1"
                     id="path40"
                     sodipodi:nodetypes="cc" />
                  <path
                     d="m 1232.5455,949.12364 c -19.9899,-36.05492 -154.5256,-24.67396 -150.2264,1.17404 -2.4213,24.33969 150.4876,27.53876 150.2264,-1.17404 z"
                     style="fill:#edf0f7;fill-opacity:1;stroke:#edf0f7;stroke-width:6.67px;stroke-opacity:1"
                     id="path44"
                     sodipodi:nodetypes="ccc" />
                </g>
                <path
                   d="m 1100.3523,1025.0128 c 61.7191,9.4172 93.8485,7.3913 150.5364,-2.5877"
                   style="fill:none;fill-opacity:1;stroke:#edf0f7;stroke-width:8.96599px;stroke-opacity:1"
                   id="path6175"
                   sodipodi:nodetypes="cc" />
              </g>
            </g>
          </g>
        </g>
      </g>
    </g>
  </g>
</svg>
