<?xml version="1.0" encoding="UTF-8" standalone="no"?>
<!-- Created with Inkscape (http://www.inkscape.org/) -->

<svg
   width="156.44591mm"
   height="155.2103mm"
   viewBox="0 0 156.44593 155.21028"
   version="1.1"
   id="svg5"
   inkscape:version="1.1.2 (0a00cf5339, 2022-02-04)"
   sodipodi:docname="firefly_logo_raw.svg"
   inkscape:export-filename="/home/dukerupert/Downloads/firefly_logo_blue_black.png"
   inkscape:export-xdpi="96"
   inkscape:export-ydpi="96"
   xmlns:inkscape="http://www.inkscape.org/namespaces/inkscape"
   xmlns:sodipodi="http://sodipodi.sourceforge.net/DTD/sodipodi-0.dtd"
   xmlns:xlink="http://www.w3.org/1999/xlink"
   xmlns="http://www.w3.org/2000/svg"
   xmlns:svg="http://www.w3.org/2000/svg"
   xmlns:serif="http://www.serif.com/">
  <sodipodi:namedview
     id="namedview7"
     pagecolor="#ffffff"
     bordercolor="#666666"
     borderopacity="1.0"
     inkscape:pageshadow="2"
     inkscape:pageopacity="0.0"
     inkscape:pagecheckerboard="0"
     inkscape:document-units="mm"
     showgrid="false"
     fit-margin-left="15"
     lock-margins="true"
     fit-margin-top="15"
     fit-margin-right="15"
     fit-margin-bottom="15"
     inkscape:zoom="1.2810466"
     inkscape:cx="264.62738"
     inkscape:cy="360.64262"
     inkscape:window-width="2256"
     inkscape:window-height="1430"
     inkscape:window-x="0"
     inkscape:window-y="50"
     inkscape:window-maximized="1"
     inkscape:current-layer="layer2"
     inkscape:snap-global="true" />
  <defs
     id="defs2">
    <color-profile
       name="BOE-CQ_------NE135FBM_N41.icm"
       xlink:href="../.local/share/icc/BOE_CQ_______NE135FBM_N41.icm"
       id="color-profile10212" />
    <clipPath
       clipPathUnits="userSpaceOnUse"
       id="clipPath1114">
      <rect
         style="fill:none;stroke:#edf0f7;stroke-width:0.00107726;stroke-opacity:1"
         id="rect1116"
         width="0.58737206"
         height="0.44944313"
         x="-0.69482392"
         y="-1.096333"
         transform="scale(1,-1)" />
    </clipPath>
  </defs>
  <g
     inkscape:label="Layer 1"
     inkscape:groupmode="layer"
     id="layer1"
     transform="translate(-20.10275,7.6856535)">
    <g
       inkscape:groupmode="layer"
       id="layer2"
       inkscape:label="Background" />
    <g
       id="g1735"
       transform="translate(-4.3993869,-32.141495)">
      <g
         id="g979"
         transform="matrix(215.89999,0,0,-279.4,189.1469,345.40718)"
         style="fill:none;stroke:#edf0f7;stroke-opacity:1"
         clip-path="url(#clipPath1114)">
        <path
           style="fill:none;stroke:#edf0f7;stroke-width:0.000344725;stroke-opacity:1"
           d="m 0.04713136,0.02774495 c 0,1.9891e-4 0.0014477,3.4234e-4 0.0038235,3.7882e-4 0.0038235,5.867e-5 0.0038235,5.867e-5 -9.804e-5,2.2727e-4 -0.0071242,3.0625e-4 -0.0027399,6.3276e-4 0.0060192,4.4825e-4 0.0089407,-1.8837e-4 0.0098473,-2.6164e-4 0.0092213,-7.4537e-4 -5.464e-4,-4.2221e-4 -0.01896598,-7.223e-4 -0.01896596,-3.0897e-4 z m 0.01205883,5.29e-4 c -3.7745e-4,7.624e-5 -9.951e-4,7.624e-5 -0.0013725,0 -3.7745e-4,-7.621e-5 -6.863e-5,-1.3857e-4 6.8627e-4,-1.3857e-4 7.549e-4,0 0.0010637,6.236e-5 6.8623e-4,1.3857e-4 z m 0.0080267,-1.6206e-4 c 2.0354e-4,4.7185e-4 0.0010809,5.5449e-4 0.0011116,1.047e-4 1.139e-5,-1.6667e-4 -2.7364e-4,-3.5015e-4 -6.334e-4,-4.0773e-4 -4.0891e-4,-6.545e-5 -5.8818e-4,4.815e-5 -4.782e-4,3.0303e-4 z m 0.53207134,0.0099532 c 0,1.6667e-4 1.7647e-4,3.0303e-4 3.9215e-4,3.0303e-4 2.1569e-4,0 3.9216e-4,-1.3636e-4 3.9216e-4,-3.0303e-4 0,-1.6666e-4 -1.7647e-4,-3.0303e-4 -3.9216e-4,-3.0303e-4 -2.1568e-4,0 -3.9215e-4,1.3637e-4 -3.9215e-4,3.0303e-4 z M 0.11811176,0.18227041 c 0,3.8197e-4 0.001151,0.001067 0.001431,8.5091e-4 4.0159e-4,-3.1031e-4 -1.9774e-4,-0.001117 -8.2993e-4,-0.001117 -3.303e-4,0 -6.0054e-4,1.1966e-4 -6.0107e-4,2.6609e-4 z M 0.04680113,0.79412568 c 0,4.1667e-4 8.901e-5,5.8712e-4 1.978e-4,3.7879e-4 1.0878e-4,-2.0834e-4 1.0878e-4,-5.4925e-4 0,-7.5758e-4 -1.0879e-4,-2.0833e-4 -1.978e-4,-3.788e-5 -1.978e-4,3.7879e-4 z m 5.8054e-4,0.0599076 c -4.6822e-4,3.6185e-4 -2.5275e-4,0.001002 3.3793e-4,0.001002 3.2353e-4,0 5.8823e-4,-1.965e-4 5.8823e-4,-4.3666e-4 0,-5.0626e-4 -5.5971e-4,-8.48e-4 -9.2616e-4,-5.6534e-4 z"
           id="path993"
           sodipodi:nodetypes="sssssssssssssssssssccscssssscss" />
        <path
           style="fill:none;stroke:#edf0f7;stroke-width:0.000344725;stroke-opacity:1"
           d="m 0.04900725,0.02828883 c 0.0011396,6.139e-5 0.0029043,6.076e-5 0.0039216,0 0.0010173,-6.221e-5 8.49e-5,-1.1245e-4 -0.002072,-1.1167e-4 -0.0021569,0 -0.0029892,5.17e-5 -0.0018496,1.1309e-4 z m 0.0088104,-1.488e-5 c 3.7745e-4,7.624e-5 9.951e-4,7.624e-5 0.0013725,0 3.7745e-4,-7.621e-5 6.862e-5,-1.3857e-4 -6.8628e-4,-1.3857e-4 -7.549e-4,0 -0.0010637,6.236e-5 -6.8622e-4,1.3857e-4 z"
           id="path991"
           sodipodi:nodetypes="cccccssss" />
        <g
           id="g16135"
           transform="translate(-0.25198398,0.38803895)"
           style="fill:none;stroke:#edf0f7;stroke-opacity:1">
          <g
             id="g1803"
             style="fill:none;stroke:#edf0f7;stroke-opacity:1">
            <g
               id="g1209"
               transform="matrix(0.00463177,0,0,-0.0035791,-0.5976594,0.83116177)"
               style="fill:none;stroke:#edf0f7;stroke-opacity:1">
              <g
                 style="clip-rule:evenodd;fill:none;fill-rule:evenodd;stroke:#edf0f7;stroke-linecap:round;stroke-linejoin:round;stroke-miterlimit:1.5;stroke-opacity:1"
                 id="g936"
                 transform="matrix(0.08676346,0,0,0.08676346,40.778347,66.254701)">
                <g
                   id="g13856"
                   transform="translate(-536.9591,-773.40038)"
                   style="fill:none;stroke:#edf0f7;stroke-opacity:1">
                  <g
                     id="outline-ref-logo"
                     serif:id="outline ref logo"
                     transform="translate(17.8188,-21.264624)"
                     style="fill:none;stroke:#edf0f7;stroke-opacity:1">
                    <g
                       transform="matrix(1,0,0,1.04116,0,-58.2001)"
                       id="g4"
                       style="fill:none;stroke:#edf0f7;stroke-opacity:1">
                      <path
                         d="m 1080.6103,1117.1532 c -8.5951,36.496 -49.7262,99.2764 -193.1103,195.3468 -247.88817,129.9175 -362.5,75 -362.5,75 0,0 314.35403,-284.1801 500,-312.5"
                         style="fill:none;fill-opacity:1;stroke:#edf0f7;stroke-width:7.72px;stroke-opacity:1"
                         id="path2"
                         sodipodi:nodetypes="cccc" />
                    </g>
                    <g
                       transform="matrix(0.54174,0.80851,-0.728907,0.488403,1977.16,-60.3666)"
                       id="g8"
                       style="fill:none;stroke:#edf0f7;stroke-opacity:1">
                      <path
                         d="M 545.4263,1360.2244 C 685.36098,1193.5474 966.27303,1088.2601 1100,1062.5 990.45783,1229.6738 787.41445,1417.0338 564.13823,1435.4785"
                         style="fill:none;fill-opacity:1;stroke:#edf0f7;stroke-width:8.5px;stroke-opacity:1"
                         id="path6"
                         sodipodi:nodetypes="ccc" />
                    </g>
                    <path
                       d="m 972.70515,1243.1154 c 0,0 -174.0567,461.4889 196.92275,458.032 317.7439,-8.3513 238.0678,-464.5399 190.6989,-490.9976"
                       style="fill:none;fill-opacity:1;stroke:#edf0f7;stroke-width:7.88px;stroke-opacity:1"
                       id="path10"
                       sodipodi:nodetypes="ccc" />
                    <g
                       transform="matrix(0.964286,0,0,0.751488,38.3929,251.655)"
                       id="g16"
                       style="fill:none;stroke:#edf0f7;stroke-opacity:1">
                      <path
                         d="m 1085.7093,995.5025 c 42.4663,12.3561 93.6955,14.2962 154.7713,-3.42188"
                         style="fill:none;fill-opacity:1;stroke:#edf0f7;stroke-width:9.11px;stroke-opacity:1"
                         id="path14"
                         sodipodi:nodetypes="cc" />
                    </g>
                    <path
                       d="m 1125,1081.25 c 0,0 -32.7692,345.7171 -111.1092,343.2371 -5.6815,-83.9999 152.1551,-157.0772 148.6476,-24.5349 -18.0641,94.3677 -51.312,48.9132 -37.9296,-13.7213 89.5118,-226.7059 175.4341,57.5924 137.8912,38.7691 -7.2235,-4.5916 -85.2,-81.8383 -81.25,-343.6283"
                       style="fill:none;fill-opacity:1;stroke:#edf0f7;stroke-width:10px;stroke-opacity:1"
                       id="path18"
                       sodipodi:nodetypes="cccccc" />
                    <path
                       d="m 1200,1637.5 c 40.3703,-3.623 65.3132,-21.3179 93.75,-50"
                       style="fill:none;stroke:#edf0f7;stroke-width:6.67px;stroke-opacity:1"
                       id="path20"
                       sodipodi:nodetypes="cc" />
                    <path
                       d="m 898.49545,1481.3377 -71.77358,16.1581"
                       style="fill:#ffffff;fill-opacity:1;stroke:#edf0f7;stroke-width:5.81958px;stroke-opacity:1"
                       id="path22" />
                    <g
                       transform="matrix(0.85001206,0,0,0.86441222,134.27772,218.7693)"
                       id="g26"
                       style="fill:none;stroke:#edf0f7;stroke-opacity:1">
                      <path
                         d="m 856.25,1631.25 66.54968,-33.1307"
                         style="fill:#ffffff;fill-opacity:1;stroke:#edf0f7;stroke-width:6.67px;stroke-opacity:1"
                         id="path24"
                         sodipodi:nodetypes="cc" />
                    </g>
                    <path
                       d="m 1004.1501,1742.4076 33.7895,-36.5972"
                       style="fill:#ffffff;fill-opacity:1;stroke:#edf0f7;stroke-width:5.79077px;stroke-opacity:1"
                       id="path28" />
                    <g
                       transform="matrix(1.0762677,0,0,0.80108017,-85.157653,357.00158)"
                       id="g32"
                       style="fill:none;stroke:#edf0f7;stroke-opacity:1">
                      <path
                         d="m 1225,1756.25 -6.25,-43.75"
                         style="fill:#ffffff;fill-opacity:1;stroke:#edf0f7;stroke-width:6.67px;stroke-opacity:1"
                         id="path30" />
                    </g>
                    <path
                       d="m 1410.172,1703.4091 -42.9272,-48.0298"
                       style="fill:#ffffff;fill-opacity:1;stroke:#edf0f7;stroke-width:5.71085px;stroke-opacity:1"
                       id="path34" />
                    <path
                       d="m 1495.802,1476.1474 h -71.3149"
                       style="fill:#ffffff;fill-opacity:1;stroke:#edf0f7;stroke-width:6.24891px;stroke-opacity:1"
                       id="path36" />
                    <path
                       d="m 1037.5,800 c 0,0 55.2051,31.9589 62.5,100"
                       style="fill:none;fill-opacity:1;stroke:#edf0f7;stroke-width:6.67px;stroke-opacity:1"
                       id="path38"
                       sodipodi:nodetypes="cc" />
                    <path
                       d="M 1201.1474,903.32058 C 1209.9132,849.03435 1221.4643,839.3347 1262.5,800"
                       style="fill:none;fill-opacity:1;stroke:#edf0f7;stroke-width:6.67px;stroke-opacity:1"
                       id="path40"
                       sodipodi:nodetypes="cc" />
                    <path
                       d="m 1232.5455,949.12364 c -19.9899,-36.05492 -154.5256,-24.67396 -150.2264,1.17404 -2.4213,24.33969 150.4876,27.53876 150.2264,-1.17404 z"
                       style="fill:#edf0f7;fill-opacity:1;stroke:#edf0f7;stroke-width:6.67px;stroke-opacity:1"
                       id="path44"
                       sodipodi:nodetypes="ccc" />
                  </g>
                  <path
                     d="m 1100.3523,1025.0128 c 61.7191,9.4172 93.8485,7.3913 150.5364,-2.5877"
                     style="fill:none;fill-opacity:1;stroke:#edf0f7;stroke-width:8.96599px;stroke-opacity:1"
                     id="path6175"
                     sodipodi:nodetypes="cc" />
                </g>
              </g>
              <path
                 style="fill:#edf0f7;fill-opacity:1;stroke:#edf0f7;stroke-width:0.0636193;stroke-opacity:1"
                 d="m 111.44354,158.8073 c -0.55633,-0.0769 -0.81998,-0.63685 -1.1472,-1.02243 -0.42875,-0.5699 -0.82401,-1.16392 -1.19525,-1.77265 -0.2925,0 -0.585,0 -0.8775,0 0.009,0.82685 -0.022,1.65528 0.0249,2.48082 0.0132,0.18453 0.41765,0.25986 0.035,0.28568 -0.35848,0.0147 -0.72284,0.0223 -1.07763,-0.0317 0.41504,-0.15879 0.26045,-0.67222 0.31393,-1.02093 0.0552,-1.54507 0.0598,-3.09123 0.0676,-4.63709 -0.16475,-0.0801 -0.56804,-0.27807 -0.14113,-0.22117 0.77861,0.0255 1.56273,0.003 2.33649,0.0995 0.4323,0.10345 0.85553,0.41362 0.91363,0.88322 0.15024,0.50186 -0.0216,1.04655 -0.37839,1.41804 -0.16168,0.18128 -0.33413,0.35258 -0.50116,0.52889 0.53699,0.95115 1.10552,1.91429 1.92921,2.64707 0.28181,0.26946 0.69473,0.28262 0.99546,0.0396 0.46716,-0.14269 -0.11025,0.26412 -0.27486,0.26256 -0.32961,0.10209 -0.68353,0.11533 -1.0231,0.0606 z m -1.88395,-3.23021 c 0.40011,-0.16983 0.64014,-0.59689 0.56684,-1.02607 -0.0625,-0.46108 -0.23998,-0.95694 -0.62007,-1.2471 -0.34185,-0.13621 -0.79542,-0.30875 -1.14451,-0.13447 -0.17957,0.3634 -0.0995,0.79521 -0.13244,1.18956 4.9e-4,0.46804 -0.025,0.93966 0.022,1.40534 0.39343,0.0537 0.79728,-0.0488 1.18063,-0.1402 l 0.071,-0.0235 z m -10.515881,3.1909 c -0.518484,-1.37763 -0.9436,-2.78918 -1.458771,-4.1677 -0.178267,-0.33174 -0.197065,0.33017 -0.286941,0.44823 -0.391431,1.16185 -0.802753,2.31784 -1.227038,3.4677 -0.239054,0.35473 -0.337869,-0.37378 -0.448887,-0.54558 -0.603244,-1.60981 -1.099293,-3.25791 -1.710735,-4.86449 -0.117372,-0.51063 -0.560219,-0.10758 -0.724305,0.0978 -0.04844,-0.39928 -0.583721,-0.19023 -0.868238,-0.24545 -0.275683,0 -0.55137,0 -0.827049,0 0.0061,1.79319 -0.0069,3.58669 -0.08273,5.3785 0.180304,0.0476 0.46698,0.26146 0.09081,0.23388 -0.351916,4.8e-4 -0.71691,0.0354 -1.061658,-0.032 -0.05678,-0.17782 0.395675,-0.0743 0.304744,-0.36712 0.0772,-1.02261 0.02475,-2.05034 0.0305,-3.07519 -0.0045,-0.70207 -0.0088,-1.40413 -0.0133,-2.10621 -0.505617,4.8e-4 -1.01824,-0.0707 -1.518154,0.0181 -0.142183,0.0294 -0.150712,0.31834 -0.171313,0.0417 -0.16785,-0.46857 -0.447933,0.0629 -0.393025,0.32374 -0.211918,-0.0593 0.02289,-0.49313 -0.244014,-0.41633 -0.730158,0.0109 -1.460313,0.0219 -2.190467,0.0327 0,0.86298 0,1.72596 0,2.58894 0.726274,-0.0124 1.460989,0.007 2.179894,-0.0585 -0.05263,0.36362 -0.655275,0.14235 -0.926719,0.21959 -0.421732,0.007 -0.843472,0.0136 -1.265209,0.0203 -0.0194,0.80841 -0.100779,1.61875 -0.03759,2.42634 -0.08813,0.26049 0.577307,0.30887 0.111533,0.3565 -0.301494,-0.0174 -0.861408,0.0838 -1.020159,-0.0568 0.134054,-0.0667 0.285576,-0.1198 0.227474,-0.30015 0.0035,-1.68603 0.0282,-3.37248 0.01335,-5.05817 0.06307,-0.16937 -0.474518,-0.68673 -0.106014,-0.42985 0.519336,0.10889 1.060113,0.0509 1.588699,0.0691 0.595204,-0.0159 1.197713,0.0353 1.787939,-0.051 0.149731,-0.12054 0.111587,-0.16344 0.204028,0.005 0.702208,0.0848 1.415454,0.0312 2.122082,0.0465 1.203562,-0.002 2.407134,-0.006 3.610685,-1e-4 -0.103713,0.37431 0.112374,0.74171 0.194751,1.09987 0.389111,1.15896 0.760864,2.32639 1.222594,3.45883 0.06364,0.22147 0.102359,0.11909 0.135954,-0.0498 0.315312,-1.08964 0.788251,-2.12906 1.067452,-3.22949 -0.0025,-0.40897 -0.133154,-0.93135 -0.513481,-1.14613 -0.08777,-0.20012 0.439433,-0.0876 0.630339,-0.10253 0.111983,0.0354 0.33301,-0.0579 0.360881,0.0768 0.181767,0.87235 0.512591,1.70511 0.767922,2.55735 0.229948,0.66271 0.397858,1.354 0.710184,1.98397 0.222078,0.004 0.228063,-0.57909 0.364481,-0.78462 0.383962,-1.19316 0.890652,-2.3481 1.188772,-3.56762 -0.17562,-0.41853 0.92739,-0.27063 0.42403,-0.0743 -0.29743,0.30922 -0.33196,0.77737 -0.50145,1.15902 -0.53152,1.52732 -1.059036,3.05694 -1.638603,4.56662 -0.0152,0.0358 -0.06536,0.12868 -0.103254,0.0524 z m 2.563491,0.013 c 0.28234,-0.26988 0.45729,-0.62274 0.60782,-0.98044 0.7196,-1.63507 1.24717,-3.34717 1.94088,-4.99199 0.27241,0.13764 0.32495,0.60571 0.47338,0.89065 0.57236,1.48942 1.0615,3.01257 1.70672,4.47303 0.10704,0.24768 0.26772,0.46542 0.45616,0.65665 -0.26352,-0.0504 -0.53331,-0.16478 -0.80111,-0.1086 -0.23853,0.23468 -0.42544,-0.004 -0.35128,-0.26689 -0.21223,-0.76566 -0.56849,-1.4821 -0.81922,-2.2352 -0.21499,-0.32983 -0.69661,-0.14407 -1.02632,-0.18769 -0.20663,0.005 -0.41326,0.009 -0.61988,0.0135 -0.32459,0.84735 -0.70972,1.67608 -0.94712,2.55305 0.0253,0.35716 -0.42248,-0.0176 -0.62003,0.18393 z m 3.02554,-2.97387 c -0.17289,-0.59674 -0.39004,-1.1847 -0.63769,-1.75435 -0.27615,0.2099 -0.29782,0.70678 -0.45975,1.0306 -0.0905,0.29678 -0.42165,0.85609 0.15602,0.75712 0.31285,9.5e-4 0.63218,0.0183 0.94142,-0.0333 z m 8.71602,2.94692 c 0.0251,-0.18946 0.40722,-0.0797 0.34608,-0.30014 0,-1.80446 0,-3.60892 0,-5.41337 -0.15669,-0.0371 -0.42203,-0.14848 -0.0817,-0.11787 1.10865,0.0405 2.21745,0.0781 3.32631,0.11325 -0.0114,0.2391 0.0361,0.49434 -0.0636,0.71783 -0.0881,-0.20507 -0.0721,-0.62123 -0.46387,-0.52269 -0.66522,-0.0306 -1.33142,-0.0137 -1.99712,-0.0181 -0.019,0.8414 -0.0843,1.68374 -0.0389,2.52494 0.27736,0.13703 0.68764,0.0477 1.01644,0.0742 0.41985,0.0103 0.85008,-0.054 1.26288,0.0287 0.0567,0.34253 -0.55465,0.11738 -0.78456,0.18576 -0.50258,0.006 -1.00515,0.0117 -1.50774,0.0175 -0.0219,0.65583 -0.11421,1.31385 -0.0501,1.9688 0.0339,0.17968 0.10003,0.35093 0.15158,0.5259 0.75921,0.0128 1.51931,0.0729 2.27806,0.0338 0.35393,0.10999 0.28252,-0.50452 0.41744,-0.44276 0.0684,0.37969 -0.0632,0.79057 -0.52946,0.6671 -1.07872,0.017 -2.16018,0.0364 -3.23738,-0.0312 z M 80.803711,158.5361 c -0.594434,-0.1205 -1.104566,-0.48962 -1.46868,-0.96638 -0.337145,-0.40716 -0.554132,-0.92601 -0.50302,-1.46207 -0.01553,-1.13089 0.401241,-2.34762 1.376884,-2.99701 1.050576,-0.67917 2.561236,-0.71641 3.557615,0.0853 0.565524,0.4961 0.941552,1.22588 0.913161,1.98855 0.0015,0.90034 -0.26021,1.84649 -0.929234,2.48302 -0.39306,0.44511 -0.934033,0.73442 -1.517638,0.8367 -0.467879,0.0944 -0.95902,0.13412 -1.429088,0.0319 z m 1.893271,-0.43478 c 0.536649,-0.16165 0.953331,-0.59161 1.258899,-1.04537 0.439899,-0.74074 0.384962,-1.69086 -0.01385,-2.43679 -0.46051,-0.95262 -1.432212,-1.69095 -2.512717,-1.70125 -0.864489,0.004 -1.683196,0.59035 -2.028821,1.37167 -0.273225,0.77628 -0.260182,1.68876 0.183011,2.40229 0.428772,0.74002 1.12351,1.39858 1.983689,1.56987 0.382237,0.0332 0.765139,-0.0526 1.129818,-0.16042 z m -8.402199,0.34069 c -0.110765,-0.0344 -0.357326,0.056 -0.30366,-0.12923 0.02195,-0.62968 -4.09e-4,-1.26457 0.0978,-1.88834 0.159834,-0.018 0.07543,0.57964 0.189226,0.7706 0.212573,0.68153 0.977007,0.95253 1.62942,0.96764 0.748946,0.0676 1.62913,-0.22675 1.936435,-0.96896 0.279931,-0.62098 -0.09097,-1.35839 -0.683876,-1.63073 -0.706928,-0.41751 -1.547767,-0.58414 -2.199136,-1.09603 -1.02167,-0.8717 -0.790153,-2.76228 0.44118,-3.32562 0.510582,-0.22981 1.090661,-0.13389 1.630077,-0.0948 0.408237,-0.0117 0.743952,0.25496 0.820205,0.65653 0.07476,0.16595 0.220381,0.59072 -0.05489,0.28534 -0.279665,-0.27133 -0.556154,-0.58728 -0.963211,-0.65273 -0.498607,-0.11328 -1.091852,-0.15329 -1.523418,0.16673 -0.457597,0.36545 -0.772361,1.00419 -0.558233,1.58324 0.274799,0.55292 0.922847,0.73551 1.446679,0.96984 0.725278,0.32392 1.577868,0.63474 1.938373,1.4053 0.256099,0.49766 0.22081,1.09788 0.08601,1.62552 -0.175899,0.52464 -0.592434,0.97916 -1.104365,1.19033 -0.677923,0.19783 -1.397381,0.11424 -2.094003,0.16839 -0.243375,0.01 -0.487368,0.01 -0.730619,-0.003 z"
                 id="path1136" />
            </g>
            <path
               style="fill:#edf0f7;fill-opacity:1;stroke:none;stroke-width:0.00346082;stroke-miterlimit:4;stroke-dasharray:none;stroke-opacity:1"
               d="m 0.03729882,0.56293283 c -0.005306,0.00154 -0.0103743,0.004357 -0.013669,0.009002 -3.3417e-4,0.0105538 0.013869,0.0155849 0.0211408,0.020509 0.0127633,0.008544 0.0290068,0.009606 0.042377,0.0159718 0.004804,0.006029 0.009497,0.0121405 0.014352,0.018127 -0.003544,0.00614 -0.0114238,1.6093e-4 -0.016843,0.001543 -0.0171878,-7.3354e-4 -0.0364038,-0.0105005 -0.0521819,-4.0241e-4 -0.002935,0.004584 0.002757,0.007594 0.002116,0.011826 -0.004716,-0.0056 -0.0128571,-0.005171 -0.0190003,-0.008746 -0.0131192,-0.00378 -0.0314896,-0.006718 -0.0407704,0.005544 -0.003442,0.003324 0.00109,0.0153401 -0.007269,0.0124165 -0.0118374,-0.003022 -0.0241562,-0.004209 -0.0358075,-0.007863 0.003578,-0.006434 0.0150462,-0.008436 0.0107605,-0.01877 -0.0141862,-0.0149654 -0.035458,-0.0211905 -0.0550713,-0.0259279 -0.007151,-0.002875 -0.013193,0.009048 -0.006762,0.0131449 0.008042,0.0115032 0.016449,0.022937 0.026781,0.032501 -2.4032e-4,0.001729 -0.005244,0.007382 0.002143,0.005086 0.004345,0.002121 0.0110074,0.005579 0.0114931,0.010897 -0.0253727,-0.00713 -0.0538949,-0.0142934 -0.0792152,-0.003988 -0.001919,0.002903 -0.0102267,0.004011 -0.004342,0.008823 0.005167,0.004998 0.007909,0.0123141 0.0155092,0.0144005 0.0115991,0.005602 0.026239,0.0036 0.0384474,4.5774e-4 l 0.006846,-0.004442 c -0.0102326,-0.007363 -0.0235977,-0.005098 -0.0351113,-0.009186 -0.0047,-0.001644 -0.0108885,1.2781e-4 -0.014286,-0.004313 0.002203,-0.007881 0.0126103,-0.002585 0.0174524,-0.004927 0.0226765,0.001455 0.0450604,0.00649 0.066288,0.0146976 0.0150274,0.0100041 0.0216256,0.0297051 0.0381505,0.0374465 l 0.005774,-0.0027 0.002506,-0.007538 -0.00161,-0.005856 c -0.005614,-0.005179 -0.008931,-0.0128919 -0.0166132,-0.0160651 -0.0116815,-0.006024 -0.0201998,-0.0161557 -0.028825,-0.0255403 0.0111259,-0.002979 0.0227202,0.00461 0.034221,0.004389 0.008446,-2.7258e-4 0.0145822,0.005122 0.0191095,0.0117292 0.007764,0.005233 0.0142412957,0.0124352 0.0235333,0.0151838 0.0100275,0.006924 0.021497,0.0150205 0.0340498,0.01487 l 0.008243,-0.003452 0.001978,-0.005073 c -0.0144496,-0.0166065 -0.0337007,-0.0283125 -0.0534189043,-0.0376542 -0.003685996,-0.002486 -0.008538996,-0.002777 -0.0127929957,-0.001997 -0.004441,-0.006361 -3.3464e-4,-0.0182389 0.009651,-0.0138 0.0104945,-2.3202e-4 0.0194349,0.006306 0.029204,0.009141 0.009221,0.003451 0.0190181,0.006056 0.0288541,0.006867 l 0.00427,-0.00194 c 9.097e-4,-0.009142 -0.0122554,-0.009314 -0.012811,-0.017499 0.02195,1.9617e-4 0.0430419,0.007721 0.0648483,0.009614 l 0.006077,-0.001844 0.00333,-0.005221 c -0.003988,-0.009135 -0.0101798,-0.016698 -0.0169505,-0.02397 l -8.06e-4,-0.002375 c 0.0117546,-0.001226 0.0249042,2.1572e-4 0.0350387,-0.007187 l 0.002207,-0.00431 -0.001071,-0.002219 c -0.007738,-9.1979e-4 -0.009903,0.009067 -0.0174887,0.008787 -0.009051,0.001276 -0.0205785,0.004731 -0.0275171,-0.003141 -0.0147397,-0.0133462 -0.0300701,-0.0277252 -0.0490642,-0.0347129 l -0.007455,-3.1275e-4 z m 0.001643,0.007604 c 0.0139009,0.007189 0.0254635,0.0180304 0.0373593,0.02781 -0.009423,0.001223 -0.0178518,-0.005209 -0.026591,-0.007815 -0.005985,-0.005864 -0.0164038,-0.0102246 -0.0178636,-0.01907 l 0.002808,-0.001428 0.00429,5.0344e-4 z m -0.14127243,0.0326999 c 0.0136193,0.003564 0.0256177,0.0116011 0.033859,0.0230878 0.002882,0.007448 -0.009346,0.0161142 -0.0134851,0.008254 -0.005749,-0.0117757 -0.0190726,-0.01881 -0.022748,-0.031796 l 0.002374,4.5213e-4 z m 0.0981514,0.052893 c 0.005466,0.001867 0.0110884,0.003621 0.015434,0.007545 0.0114648,0.005052 0.0237471,0.0106888 0.030997,0.021437 -0.008268,0.001154 -0.014735,-0.006281 -0.022225,-0.00867 -0.009691,-0.005185 -0.0187742,-0.0117339 -0.026364,-0.019739 l 4.0655e-4,-0.001332 0.001751,7.5758e-4 z m -0.12944662,0.0130123 c 0.005361,0.001969 0.0127123,0.001504 0.016706,0.005534 -0.007916,9.9311e-4 -0.0170173,0.001075 -0.024089,-0.003029 l -0.002398,-0.003274 z m -0.28,-0.0781724 -0.006063,0.003989 c -0.001174,0.008012 0.002954,0.0164003 0.009703,0.0206917 0.00929,0.0118578 0.018511,0.0238116 0.02979,0.033946 l 9.5515e-4,0.002744 c -0.020201,-0.007236 -0.0417784,-0.0123983 -0.059051,-0.0257586 l -0.002635,0.004719 c 0.008696,0.009824 0.0237257,0.0108001 0.0349327,0.0170037 0.0186485,0.007197 0.0391943,0.0107553 0.0543514,0.0248198 0.009817,0.009603 0.0221153,0.0160031 0.0322631,0.025162 -0.0134494,0.001705 -0.025616,-0.006614 -0.0381774,-0.010198 -0.0140846,-0.006377 -0.0294982,-0.0106904 -0.041,-0.0218112 l -0.005211,0.003453 c 0.001768,0.008676 0.0123245,0.007838 0.018531,0.011424 0.0238621,0.0114697 0.0488778,0.0211353 0.0750718,0.0256616 l 0.005195,-0.001021 0.00143,-0.006853 c -0.0110637,-0.0114351 -0.0254981,-0.0188632 -0.037115,-0.029678 0.0114106,6.0931e-4 0.0219245,0.007045 0.0335759,0.006436 l 0.002723,-0.003723 c -0.006353,-0.0107283 -0.0196657,-0.002776 -0.0288831,-0.006771 -0.0149408,-7.807e-4 -0.0263831,-0.010488 -0.035352,-0.0215051 -0.0125118,-0.012335 -0.0250461,-0.0253189 -0.034658,-0.039863 l -0.001182,-0.003772 0.004151,-0.003286 c 0.007171,-5.0773e-4 -0.002663,-0.0100864 -0.005115,-0.005974 l -0.003922,-4.004e-4 -0.004314,5.6012e-4 z m 0.11039215,0.0379147 c -0.00854,0.004601 -0.001608,0.0156218 0.002898,0.020654 l 0.001612,0.002803 c -0.0108077,-3.2396e-4 -0.0191657,-0.00787 -0.028751,-0.0118176 -0.00513,0.003668 0.003476,0.006423 0.005253,0.007774 0.009943,0.005305 0.0198672,0.0110485 0.030491,0.014783 l 0.009132,-0.002449 c 3.1543e-4,-0.008039 -0.008054,-0.0119261 -0.008985,-0.0194577 0.002595,-0.005056 0.008012,0.002407 0.011092,0.001866 0.0234939,0.0110979 0.045936,0.0243741 0.0692958,0.0355419 l 0.00855,-0.001998 c 0.001618,-0.003142 0.008418,-0.008285 0.002647,-0.0112162 -0.006991,-0.005522 -0.0145227,-0.0103223 -0.019176,-0.0181702 0.0103644,-0.001783 0.0206807,0.005675 0.0302846,0.009349 0.007397,0.002906 0.0132256,0.0104859 0.021538,0.0100372 -0.007223,-0.0126662 -0.0238121,-0.0150915 -0.0351339,-0.0229321 -0.008128,-0.003344 -0.0202407,-0.007778 -0.0272596,-4.2412e-4 -0.005144,0.00595 0.004997,0.0112952 0.007323,0.015782 0.002435,0.003032 0.006601,0.005157 0.006909,0.009568 -0.014231,-0.003668 -0.0266567,-0.0129963 -0.040441,-0.0183914 -0.0147847,-0.008088 -0.0297759,-0.0210557 -0.0472789,-0.0213018 z m 0.0284146,0.0527388 -0.003217,0.00418 c 0.001695,0.005713 0.009249,0.003531 0.012939,0.003378 0.004699,-0.005608 -0.006012,-0.009808 -0.009723,-0.007558 z"
               id="path981"
               sodipodi:nodetypes="ccssssccscccccccscsssssscscsccssccscsccssscsscssccsssssscssccscsccccccsscssssscccccccccscssscsscccsccccccccccsccccsssccsssccsssssssccscscscccscscccscsssccsscscsccscssccscsccccssscccccscccccccccsssscsscscsscccssscccccccscsccsscsscccccssccscccssccscsccscsscccccssscssccsssscscsscccssscssscccccscsccsscsccsscscsccssscscccccccsscscssssccccssccsccsscccccccsccccccsccccccscscscscscccccccsssccccssccscsccsscccccccccscscccssssscsccccccsccccccccscccscscscsccsscscccccscccscsccccccscccssccsccccscscssscsccscccccscsccsccccccccccccccsscsccscccccsccccccccsccscsscccssscccsscscscssccsccscccscccccssssssccssscccccscscscccssscssscscccccccsccscccccscscccsccscscssccccccccscccccscccccccccccccc" />
          </g>
        </g>
      </g>
    </g>
  </g>
</svg>
